<svg xmlns="http://www.w3.org/2000/svg" width="120" height="120" viewBox="0 0 120 120">
  <rect width="120" height="120" fill="#f5f0e8" rx="12"/>
  <g transform="translate(30, 25) scale(0.15)">
    <path fill="#b89968" stroke="#9a8052" stroke-width="8" d="M200,50 Q250,30 300,50 Q320,70 320,100 L320,200 Q320,250 280,280 Q250,300 200,300 Q150,300 120,280 Q80,250 80,200 L80,100 Q80,70 100,50 Q150,30 200,50 Z M180,90 Q185,85 190,90 Q195,95 190,100 Q185,105 180,100 Q175,95 180,90 Z M140,150 Q160,140 180,150 L180,180 Q160,190 140,180 Z"/>
  </g>
</svg>